solid Untitled-67cf7c27
facet normal 0.0 0.0 -1.0
  outer loop
    vertex -5.795554957734409 1.552914270615126 0.0
    vertex -5.79555495773441 -1.552914270615122 0.0
    vertex -6.0 7.347880794884119e-16 0.0
  endloop
endfacet
facet normal 0.0 0.0 -1.0
  outer loop
    vertex -5.79555495773441 -1.552914270615122 0.0
    vertex -5.795554957734409 1.552914270615126 0.0
    vertex -5.196152422706632 -2.9999999999999982 0.0
  endloop
endfacet
facet normal 0.0 0.0 -1.0
  outer loop
    vertex -5.196152422706632 -2.9999999999999982 0.0
    vertex -5.795554957734409 1.552914270615126 0.0
    vertex -5.196152422706631 3.0000000000000018 0.0
  endloop
endfacet
facet normal 0.0 0.0 -1.0
  outer loop
    vertex -5.196152422706632 -2.9999999999999982 0.0
    vertex -5.196152422706631 3.0000000000000018 0.0
    vertex -4.242640687119287 -4.242640687119282 0.0
  endloop
endfacet
facet normal 0.0 0.0 -1.0
  outer loop
    vertex -4.242640687119287 -4.242640687119282 0.0
    vertex -5.196152422706631 3.0000000000000018 0.0
    vertex -4.242640687119285 4.242640687119285 0.0
  endloop
endfacet
facet normal 0.0 0.0 -1.0
  outer loop
    vertex -4.242640687119287 -4.242640687119282 0.0
    vertex -4.242640687119285 4.242640687119285 0.0
    vertex -3.0000000000000027 -5.196152422706631 0.0
  endloop
endfacet
facet normal 0.0 0.0 -1.0
  outer loop
    vertex -3.0000000000000027 -5.196152422706631 0.0
    vertex -4.242640687119285 4.242640687119285 0.0
    vertex -2.9999999999999982 5.196152422706632 0.0
  endloop
endfacet
facet normal 0.0 0.0 -1.0
  outer loop
    vertex -3.0000000000000027 -5.196152422706631 0.0
    vertex -2.9999999999999982 5.196152422706632 0.0
    vertex -1.552914270615129 -5.795554957734408 0.0
  endloop
endfacet
facet normal 0.0 0.0 -1.0
  outer loop
    vertex -1.552914270615129 -5.795554957734408 0.0
    vertex -2.9999999999999982 5.196152422706632 0.0
    vertex -1.5529142706151238 5.79555495773441 0.0
  endloop
endfacet
facet normal 0.0 0.0 -1.0
  outer loop
    vertex -1.552914270615129 -5.795554957734408 0.0
    vertex -1.5529142706151238 5.79555495773441 0.0
    vertex -1.1021821192326177e-15 -6.0 0.0
  endloop
endfacet
facet normal 0.0 0.0 -1.0
  outer loop
    vertex -1.1021821192326177e-15 -6.0 0.0
    vertex -1.5529142706151238 5.79555495773441 0.0
    vertex 3.6739403974420594e-16 6.0 0.0
  endloop
endfacet
facet normal 0.0 0.0 -1.0
  outer loop
    vertex -1.1021821192326177e-15 -6.0 0.0
    vertex 3.6739403974420594e-16 6.0 0.0
    vertex 1.5529142706151216 -5.79555495773441 0.0
  endloop
endfacet
facet normal 0.0 0.0 -1.0
  outer loop
    vertex 1.5529142706151216 -5.79555495773441 0.0
    vertex 3.6739403974420594e-16 6.0 0.0
    vertex 1.5529142706151258 5.795554957734409 0.0
  endloop
endfacet
facet normal 0.0 0.0 -1.0
  outer loop
    vertex 1.5529142706151216 -5.79555495773441 0.0
    vertex 1.5529142706151258 5.795554957734409 0.0
    vertex 2.999999999999996 -5.196152422706634 0.0
  endloop
endfacet
facet normal 0.0 0.0 -1.0
  outer loop
    vertex 2.999999999999996 -5.196152422706634 0.0
    vertex 1.5529142706151258 5.795554957734409 0.0
    vertex 3.0000000000000004 5.196152422706631 0.0
  endloop
endfacet
facet normal 0.0 0.0 -1.0
  outer loop
    vertex 2.999999999999996 -5.196152422706634 0.0
    vertex 3.0000000000000004 5.196152422706631 0.0
    vertex 4.242640687119284 -4.242640687119286 0.0
  endloop
endfacet
facet normal 0.0 0.0 -1.0
  outer loop
    vertex 4.242640687119284 -4.242640687119286 0.0
    vertex 3.0000000000000004 5.196152422706631 0.0
    vertex 4.242640687119285 4.242640687119285 0.0
  endloop
endfacet
facet normal 0.0 0.0 -1.0
  outer loop
    vertex 4.242640687119284 -4.242640687119286 0.0
    vertex 4.242640687119285 4.242640687119285 0.0
    vertex 5.19615242270663 -3.0000000000000027 0.0
  endloop
endfacet
facet normal 0.0 0.0 -1.0
  outer loop
    vertex 5.19615242270663 -3.0000000000000027 0.0
    vertex 4.242640687119285 4.242640687119285 0.0
    vertex 5.196152422706632 2.9999999999999996 0.0
  endloop
endfacet
facet normal 0.0 0.0 -1.0
  outer loop
    vertex 5.19615242270663 -3.0000000000000027 0.0
    vertex 5.196152422706632 2.9999999999999996 0.0
    vertex 5.795554957734408 -1.5529142706151293 0.0
  endloop
endfacet
facet normal 0.0 0.0 -1.0
  outer loop
    vertex 5.795554957734408 -1.5529142706151293 0.0
    vertex 5.196152422706632 2.9999999999999996 0.0
    vertex 5.79555495773441 1.5529142706151242 0.0
  endloop
endfacet
facet normal 0.0 0.0 -1.0
  outer loop
    vertex 5.795554957734408 -1.5529142706151293 0.0
    vertex 5.79555495773441 1.5529142706151242 0.0
    vertex 6.0 0.0 0.0
  endloop
endfacet
facet normal -0.0 -0.0 1.0
  outer loop
    vertex -5.79555495773441 -1.552914270615122 500.0
    vertex -5.795554957734409 1.552914270615126 500.0
    vertex -6.0 7.347880794884119e-16 500.0
  endloop
endfacet
facet normal -0.0 -0.0 1.0
  outer loop
    vertex -5.795554957734409 1.552914270615126 500.0
    vertex -5.79555495773441 -1.552914270615122 500.0
    vertex -5.196152422706632 -2.9999999999999982 500.0
  endloop
endfacet
facet normal -0.0 -0.0 1.0
  outer loop
    vertex -5.795554957734409 1.552914270615126 500.0
    vertex -5.196152422706632 -2.9999999999999982 500.0
    vertex -5.196152422706631 3.0000000000000018 500.0
  endloop
endfacet
facet normal -0.0 -0.0 1.0
  outer loop
    vertex -5.196152422706631 3.0000000000000018 500.0
    vertex -5.196152422706632 -2.9999999999999982 500.0
    vertex -4.242640687119287 -4.242640687119282 500.0
  endloop
endfacet
facet normal -0.0 -0.0 1.0
  outer loop
    vertex -5.196152422706631 3.0000000000000018 500.0
    vertex -4.242640687119287 -4.242640687119282 500.0
    vertex -4.242640687119285 4.242640687119285 500.0
  endloop
endfacet
facet normal -0.0 -0.0 1.0
  outer loop
    vertex -4.242640687119285 4.242640687119285 500.0
    vertex -4.242640687119287 -4.242640687119282 500.0
    vertex -3.0000000000000027 -5.196152422706631 500.0
  endloop
endfacet
facet normal -0.0 -0.0 1.0
  outer loop
    vertex -4.242640687119285 4.242640687119285 500.0
    vertex -3.0000000000000027 -5.196152422706631 500.0
    vertex -2.9999999999999982 5.196152422706632 500.0
  endloop
endfacet
facet normal -0.0 -0.0 1.0
  outer loop
    vertex -2.9999999999999982 5.196152422706632 500.0
    vertex -3.0000000000000027 -5.196152422706631 500.0
    vertex -1.552914270615129 -5.795554957734408 500.0
  endloop
endfacet
facet normal -0.0 -0.0 1.0
  outer loop
    vertex -2.9999999999999982 5.196152422706632 500.0
    vertex -1.552914270615129 -5.795554957734408 500.0
    vertex -1.5529142706151238 5.79555495773441 500.0
  endloop
endfacet
facet normal -0.0 -0.0 1.0
  outer loop
    vertex -1.5529142706151238 5.79555495773441 500.0
    vertex -1.552914270615129 -5.795554957734408 500.0
    vertex -1.1021821192326177e-15 -6.0 500.0
  endloop
endfacet
facet normal -0.0 -0.0 1.0
  outer loop
    vertex -1.5529142706151238 5.79555495773441 500.0
    vertex -1.1021821192326177e-15 -6.0 500.0
    vertex 3.6739403974420594e-16 6.0 500.0
  endloop
endfacet
facet normal -0.0 -0.0 1.0
  outer loop
    vertex 3.6739403974420594e-16 6.0 500.0
    vertex -1.1021821192326177e-15 -6.0 500.0
    vertex 1.5529142706151216 -5.79555495773441 500.0
  endloop
endfacet
facet normal -0.0 -0.0 1.0
  outer loop
    vertex 3.6739403974420594e-16 6.0 500.0
    vertex 1.5529142706151216 -5.79555495773441 500.0
    vertex 1.5529142706151258 5.795554957734409 500.0
  endloop
endfacet
facet normal -0.0 -0.0 1.0
  outer loop
    vertex 1.5529142706151258 5.795554957734409 500.0
    vertex 1.5529142706151216 -5.79555495773441 500.0
    vertex 2.999999999999996 -5.196152422706634 500.0
  endloop
endfacet
facet normal -0.0 -0.0 1.0
  outer loop
    vertex 1.5529142706151258 5.795554957734409 500.0
    vertex 2.999999999999996 -5.196152422706634 500.0
    vertex 3.0000000000000004 5.196152422706631 500.0
  endloop
endfacet
facet normal -0.0 -0.0 1.0
  outer loop
    vertex 3.0000000000000004 5.196152422706631 500.0
    vertex 2.999999999999996 -5.196152422706634 500.0
    vertex 4.242640687119284 -4.242640687119286 500.0
  endloop
endfacet
facet normal -0.0 -0.0 1.0
  outer loop
    vertex 3.0000000000000004 5.196152422706631 500.0
    vertex 4.242640687119284 -4.242640687119286 500.0
    vertex 4.242640687119285 4.242640687119285 500.0
  endloop
endfacet
facet normal -0.0 -0.0 1.0
  outer loop
    vertex 4.242640687119285 4.242640687119285 500.0
    vertex 4.242640687119284 -4.242640687119286 500.0
    vertex 5.19615242270663 -3.0000000000000027 500.0
  endloop
endfacet
facet normal -0.0 -0.0 1.0
  outer loop
    vertex 4.242640687119285 4.242640687119285 500.0
    vertex 5.19615242270663 -3.0000000000000027 500.0
    vertex 5.196152422706632 2.9999999999999996 500.0
  endloop
endfacet
facet normal -0.0 -0.0 1.0
  outer loop
    vertex 5.196152422706632 2.9999999999999996 500.0
    vertex 5.19615242270663 -3.0000000000000027 500.0
    vertex 5.795554957734408 -1.5529142706151293 500.0
  endloop
endfacet
facet normal -0.0 -0.0 1.0
  outer loop
    vertex 5.196152422706632 2.9999999999999996 500.0
    vertex 5.795554957734408 -1.5529142706151293 500.0
    vertex 5.79555495773441 1.5529142706151242 500.0
  endloop
endfacet
facet normal -0.0 -0.0 1.0
  outer loop
    vertex 5.79555495773441 1.5529142706151242 500.0
    vertex 5.795554957734408 -1.5529142706151293 500.0
    vertex 6.0 0.0 500.0
  endloop
endfacet
facet normal 0.3826834323650895 -0.9238795325112868 0.0
  outer loop
    vertex 2.999999999999996 -5.196152422706634 500.0
    vertex 1.5529142706151216 -5.79555495773441 0.0
    vertex 2.999999999999996 -5.196152422706634 0.0
  endloop
endfacet
facet normal 0.3826834323650895 -0.9238795325112868 0.0
  outer loop
    vertex 1.5529142706151216 -5.79555495773441 0.0
    vertex 2.999999999999996 -5.196152422706634 500.0
    vertex 1.5529142706151216 -5.79555495773441 500.0
  endloop
endfacet
facet normal 0.13052619222005102 -0.9914448613738105 0.0
  outer loop
    vertex 1.5529142706151216 -5.79555495773441 500.0
    vertex -1.1021821192326177e-15 -6.0 0.0
    vertex 1.5529142706151216 -5.79555495773441 0.0
  endloop
endfacet
facet normal 0.13052619222005102 -0.9914448613738105 0.0
  outer loop
    vertex -1.1021821192326177e-15 -6.0 0.0
    vertex 1.5529142706151216 -5.79555495773441 500.0
    vertex -1.1021821192326177e-15 -6.0 500.0
  endloop
endfacet
facet normal -0.1305261922200519 -0.9914448613738104 -0.0
  outer loop
    vertex -1.1021821192326177e-15 -6.0 500.0
    vertex -1.552914270615129 -5.795554957734408 0.0
    vertex -1.1021821192326177e-15 -6.0 0.0
  endloop
endfacet
facet normal -0.1305261922200519 -0.9914448613738104 -0.0
  outer loop
    vertex -1.552914270615129 -5.795554957734408 0.0
    vertex -1.1021821192326177e-15 -6.0 500.0
    vertex -1.552914270615129 -5.795554957734408 500.0
  endloop
endfacet
facet normal -0.3826834323650901 -0.9238795325112868 -0.0
  outer loop
    vertex -1.552914270615129 -5.795554957734408 500.0
    vertex -3.0000000000000027 -5.196152422706631 0.0
    vertex -1.552914270615129 -5.795554957734408 0.0
  endloop
endfacet
facet normal -0.3826834323650901 -0.9238795325112868 -0.0
  outer loop
    vertex -3.0000000000000027 -5.196152422706631 0.0
    vertex -1.552914270615129 -5.795554957734408 500.0
    vertex -3.0000000000000027 -5.196152422706631 500.0
  endloop
endfacet
facet normal -0.6087614290087214 -0.7933533402912345 -0.0
  outer loop
    vertex -3.0000000000000027 -5.196152422706631 500.0
    vertex -4.242640687119287 -4.242640687119282 0.0
    vertex -3.0000000000000027 -5.196152422706631 0.0
  endloop
endfacet
facet normal -0.6087614290087214 -0.7933533402912345 -0.0
  outer loop
    vertex -4.242640687119287 -4.242640687119282 0.0
    vertex -3.0000000000000027 -5.196152422706631 500.0
    vertex -4.242640687119287 -4.242640687119282 500.0
  endloop
endfacet
facet normal -0.7933533402912355 -0.6087614290087202 -0.0
  outer loop
    vertex -5.196152422706632 -2.9999999999999982 500.0
    vertex -4.242640687119287 -4.242640687119282 0.0
    vertex -4.242640687119287 -4.242640687119282 500.0
  endloop
endfacet
facet normal -0.7933533402912355 -0.6087614290087202 -0.0
  outer loop
    vertex -4.242640687119287 -4.242640687119282 0.0
    vertex -5.196152422706632 -2.9999999999999982 500.0
    vertex -5.196152422706632 -2.9999999999999982 0.0
  endloop
endfacet
facet normal -0.9238795325112867 -0.3826834323650899 -0.0
  outer loop
    vertex -5.79555495773441 -1.552914270615122 500.0
    vertex -5.196152422706632 -2.9999999999999982 0.0
    vertex -5.196152422706632 -2.9999999999999982 500.0
  endloop
endfacet
facet normal -0.9238795325112867 -0.3826834323650899 -0.0
  outer loop
    vertex -5.196152422706632 -2.9999999999999982 0.0
    vertex -5.79555495773441 -1.552914270615122 500.0
    vertex -5.79555495773441 -1.552914270615122 0.0
  endloop
endfacet
facet normal -0.9914448613738105 -0.13052619222005102 -0.0
  outer loop
    vertex -6.0 7.347880794884119e-16 500.0
    vertex -5.79555495773441 -1.552914270615122 0.0
    vertex -5.79555495773441 -1.552914270615122 500.0
  endloop
endfacet
facet normal -0.9914448613738105 -0.13052619222005102 -0.0
  outer loop
    vertex -5.79555495773441 -1.552914270615122 0.0
    vertex -6.0 7.347880794884119e-16 500.0
    vertex -6.0 7.347880794884119e-16 0.0
  endloop
endfacet
facet normal -0.9914448613738105 0.13052619222005168 0.0
  outer loop
    vertex -5.795554957734409 1.552914270615126 500.0
    vertex -6.0 7.347880794884119e-16 0.0
    vertex -6.0 7.347880794884119e-16 500.0
  endloop
endfacet
facet normal -0.9914448613738105 0.13052619222005168 0.0
  outer loop
    vertex -6.0 7.347880794884119e-16 0.0
    vertex -5.795554957734409 1.552914270615126 500.0
    vertex -5.795554957734409 1.552914270615126 0.0
  endloop
endfacet
facet normal -0.9238795325112866 0.38268343236508984 0.0
  outer loop
    vertex -5.196152422706631 3.0000000000000018 500.0
    vertex -5.795554957734409 1.552914270615126 0.0
    vertex -5.795554957734409 1.552914270615126 500.0
  endloop
endfacet
facet normal -0.9238795325112866 0.38268343236508984 0.0
  outer loop
    vertex -5.795554957734409 1.552914270615126 0.0
    vertex -5.196152422706631 3.0000000000000018 500.0
    vertex -5.196152422706631 3.0000000000000018 0.0
  endloop
endfacet
facet normal -0.7933533402912348 0.6087614290087211 0.0
  outer loop
    vertex -4.242640687119285 4.242640687119285 500.0
    vertex -5.196152422706631 3.0000000000000018 0.0
    vertex -5.196152422706631 3.0000000000000018 500.0
  endloop
endfacet
facet normal -0.7933533402912348 0.6087614290087211 0.0
  outer loop
    vertex -5.196152422706631 3.0000000000000018 0.0
    vertex -4.242640687119285 4.242640687119285 500.0
    vertex -4.242640687119285 4.242640687119285 0.0
  endloop
endfacet
facet normal -0.6087614290087204 0.7933533402912353 0.0
  outer loop
    vertex -4.242640687119285 4.242640687119285 500.0
    vertex -2.9999999999999982 5.196152422706632 0.0
    vertex -4.242640687119285 4.242640687119285 0.0
  endloop
endfacet
facet normal -0.6087614290087204 0.7933533402912353 0.0
  outer loop
    vertex -2.9999999999999982 5.196152422706632 0.0
    vertex -4.242640687119285 4.242640687119285 500.0
    vertex -2.9999999999999982 5.196152422706632 500.0
  endloop
endfacet
facet normal -0.38268343236508984 0.9238795325112868 0.0
  outer loop
    vertex -2.9999999999999982 5.196152422706632 500.0
    vertex -1.5529142706151238 5.79555495773441 0.0
    vertex -2.9999999999999982 5.196152422706632 0.0
  endloop
endfacet
facet normal -0.38268343236508984 0.9238795325112868 0.0
  outer loop
    vertex -1.5529142706151238 5.79555495773441 0.0
    vertex -2.9999999999999982 5.196152422706632 500.0
    vertex -1.5529142706151238 5.79555495773441 500.0
  endloop
endfacet
facet normal -0.13052619222005135 0.9914448613738105 0.0
  outer loop
    vertex -1.5529142706151238 5.79555495773441 500.0
    vertex 3.6739403974420594e-16 6.0 0.0
    vertex -1.5529142706151238 5.79555495773441 0.0
  endloop
endfacet
facet normal -0.13052619222005135 0.9914448613738105 0.0
  outer loop
    vertex 3.6739403974420594e-16 6.0 0.0
    vertex -1.5529142706151238 5.79555495773441 500.0
    vertex 3.6739403974420594e-16 6.0 500.0
  endloop
endfacet
facet normal 0.13052619222005168 0.9914448613738105 0.0
  outer loop
    vertex 3.6739403974420594e-16 6.0 500.0
    vertex 1.5529142706151258 5.795554957734409 0.0
    vertex 3.6739403974420594e-16 6.0 0.0
  endloop
endfacet
facet normal 0.13052619222005168 0.9914448613738105 0.0
  outer loop
    vertex 1.5529142706151258 5.795554957734409 0.0
    vertex 3.6739403974420594e-16 6.0 500.0
    vertex 1.5529142706151258 5.795554957734409 500.0
  endloop
endfacet
facet normal 0.3826834323650898 0.9238795325112867 0.0
  outer loop
    vertex 1.5529142706151258 5.795554957734409 500.0
    vertex 3.0000000000000004 5.196152422706631 0.0
    vertex 1.5529142706151258 5.795554957734409 0.0
  endloop
endfacet
facet normal 0.3826834323650898 0.9238795325112867 0.0
  outer loop
    vertex 3.0000000000000004 5.196152422706631 0.0
    vertex 1.5529142706151258 5.795554957734409 500.0
    vertex 3.0000000000000004 5.196152422706631 500.0
  endloop
endfacet
facet normal 0.6087614290087207 0.7933533402912352 0.0
  outer loop
    vertex 3.0000000000000004 5.196152422706631 500.0
    vertex 4.242640687119285 4.242640687119285 0.0
    vertex 3.0000000000000004 5.196152422706631 0.0
  endloop
endfacet
facet normal 0.6087614290087207 0.7933533402912352 0.0
  outer loop
    vertex 4.242640687119285 4.242640687119285 0.0
    vertex 3.0000000000000004 5.196152422706631 500.0
    vertex 4.242640687119285 4.242640687119285 500.0
  endloop
endfacet
facet normal 0.7933533402912354 0.6087614290087207 0.0
  outer loop
    vertex 4.242640687119285 4.242640687119285 0.0
    vertex 5.196152422706632 2.9999999999999996 500.0
    vertex 5.196152422706632 2.9999999999999996 0.0
  endloop
endfacet
facet normal 0.7933533402912354 0.6087614290087207 0.0
  outer loop
    vertex 5.196152422706632 2.9999999999999996 500.0
    vertex 4.242640687119285 4.242640687119285 0.0
    vertex 4.242640687119285 4.242640687119285 500.0
  endloop
endfacet
facet normal 0.9238795325112868 0.38268343236508967 0.0
  outer loop
    vertex 5.196152422706632 2.9999999999999996 0.0
    vertex 5.79555495773441 1.5529142706151242 500.0
    vertex 5.79555495773441 1.5529142706151242 0.0
  endloop
endfacet
facet normal 0.9238795325112868 0.38268343236508967 0.0
  outer loop
    vertex 5.79555495773441 1.5529142706151242 500.0
    vertex 5.196152422706632 2.9999999999999996 0.0
    vertex 5.196152422706632 2.9999999999999996 500.0
  endloop
endfacet
facet normal 0.9914448613738106 0.13052619222005135 0.0
  outer loop
    vertex 5.79555495773441 1.5529142706151242 0.0
    vertex 6.0 0.0 500.0
    vertex 6.0 0.0 0.0
  endloop
endfacet
facet normal 0.9914448613738106 0.13052619222005135 0.0
  outer loop
    vertex 6.0 0.0 500.0
    vertex 5.79555495773441 1.5529142706151242 0.0
    vertex 5.79555495773441 1.5529142706151242 500.0
  endloop
endfacet
facet normal 0.9914448613738105 -0.1305261922200518 0.0
  outer loop
    vertex 6.0 0.0 0.0
    vertex 5.795554957734408 -1.5529142706151293 500.0
    vertex 5.795554957734408 -1.5529142706151293 0.0
  endloop
endfacet
facet normal 0.9914448613738105 -0.1305261922200518 0.0
  outer loop
    vertex 5.795554957734408 -1.5529142706151293 500.0
    vertex 6.0 0.0 0.0
    vertex 6.0 0.0 500.0
  endloop
endfacet
facet normal 0.9238795325112866 -0.38268343236509056 0.0
  outer loop
    vertex 5.795554957734408 -1.5529142706151293 0.0
    vertex 5.19615242270663 -3.0000000000000027 500.0
    vertex 5.19615242270663 -3.0000000000000027 0.0
  endloop
endfacet
facet normal 0.9238795325112866 -0.38268343236509056 0.0
  outer loop
    vertex 5.19615242270663 -3.0000000000000027 500.0
    vertex 5.795554957734408 -1.5529142706151293 0.0
    vertex 5.795554957734408 -1.5529142706151293 500.0
  endloop
endfacet
facet normal 0.7933533402912348 -0.6087614290087211 0.0
  outer loop
    vertex 5.19615242270663 -3.0000000000000027 0.0
    vertex 4.242640687119284 -4.242640687119286 500.0
    vertex 4.242640687119284 -4.242640687119286 0.0
  endloop
endfacet
facet normal 0.7933533402912348 -0.6087614290087211 0.0
  outer loop
    vertex 4.242640687119284 -4.242640687119286 500.0
    vertex 5.19615242270663 -3.0000000000000027 0.0
    vertex 5.19615242270663 -3.0000000000000027 500.0
  endloop
endfacet
facet normal 0.6087614290087202 -0.7933533402912355 0.0
  outer loop
    vertex 4.242640687119284 -4.242640687119286 500.0
    vertex 2.999999999999996 -5.196152422706634 0.0
    vertex 4.242640687119284 -4.242640687119286 0.0
  endloop
endfacet
facet normal 0.6087614290087202 -0.7933533402912355 0.0
  outer loop
    vertex 2.999999999999996 -5.196152422706634 0.0
    vertex 4.242640687119284 -4.242640687119286 500.0
    vertex 2.999999999999996 -5.196152422706634 500.0
  endloop
endfacet
endsolid Untitled-67cf7c27
