solid tripod
facet normal -0.9914448613738104 0.13052619222005168 0.0
  outer loop
    vertex -6.761480784023478 1.811733315717647 220.0
    vertex -7.0 8.572527594031472e-16 0.0
    vertex -7.0 8.572527594031472e-16 220.0
  endloop
endfacet
facet normal -0.9914448613738104 0.13052619222005168 0.0
  outer loop
    vertex -7.0 8.572527594031472e-16 0.0
    vertex -6.761480784023478 1.811733315717647 220.0
    vertex -6.761480784023478 1.811733315717647 0.0
  endloop
endfacet
facet normal 0.9914448613738105 0.13052619222005177 0.0
  outer loop
    vertex 6.761480784023478 1.8117333157176452 0.0
    vertex 7.0 0.0 220.0
    vertex 7.0 0.0 0.0
  endloop
endfacet
facet normal 0.9914448613738105 0.13052619222005177 0.0
  outer loop
    vertex 7.0 0.0 220.0
    vertex 6.761480784023478 1.8117333157176452 0.0
    vertex 6.761480784023478 1.8117333157176452 220.0
  endloop
endfacet
facet normal 0.9914448613738105 -0.13052619222005213 0.0
  outer loop
    vertex 7.0 0.0 0.0
    vertex 6.761480784023476 -1.811733315717651 220.0
    vertex 6.761480784023476 -1.811733315717651 0.0
  endloop
endfacet
facet normal 0.9914448613738105 -0.13052619222005213 0.0
  outer loop
    vertex 6.761480784023476 -1.811733315717651 220.0
    vertex 7.0 0.0 0.0
    vertex 7.0 0.0 220.0
  endloop
endfacet
facet normal -0.9238795325112867 0.3826834323650901 0.0
  outer loop
    vertex -6.0621778264910695 3.500000000000002 220.0
    vertex -6.761480784023478 1.811733315717647 0.0
    vertex -6.761480784023478 1.811733315717647 220.0
  endloop
endfacet
facet normal -0.9238795325112867 0.3826834323650901 0.0
  outer loop
    vertex -6.761480784023478 1.811733315717647 0.0
    vertex -6.0621778264910695 3.500000000000002 220.0
    vertex -6.0621778264910695 3.500000000000002 0.0
  endloop
endfacet
facet normal -0.793353340291235 0.6087614290087208 0.0
  outer loop
    vertex -4.949747468305833 4.949747468305833 220.0
    vertex -6.0621778264910695 3.500000000000002 0.0
    vertex -6.0621778264910695 3.500000000000002 220.0
  endloop
endfacet
facet normal -0.793353340291235 0.6087614290087208 0.0
  outer loop
    vertex -6.0621778264910695 3.500000000000002 0.0
    vertex -4.949747468305833 4.949747468305833 220.0
    vertex -4.949747468305833 4.949747468305833 0.0
  endloop
endfacet
facet normal 0.38268343236508995 0.9238795325112866 0.0
  outer loop
    vertex 1.8117333157176467 6.761480784023478 220.0
    vertex 3.5000000000000004 6.06217782649107 0.0
    vertex 1.8117333157176467 6.761480784023478 0.0
  endloop
endfacet
facet normal 0.38268343236508995 0.9238795325112866 0.0
  outer loop
    vertex 3.5000000000000004 6.06217782649107 0.0
    vertex 1.8117333157176467 6.761480784023478 220.0
    vertex 3.5000000000000004 6.06217782649107 220.0
  endloop
endfacet
facet normal -0.6087614290087203 0.7933533402912356 0.0
  outer loop
    vertex -4.949747468305833 4.949747468305833 220.0
    vertex -3.4999999999999987 6.06217782649107 0.0
    vertex -4.949747468305833 4.949747468305833 0.0
  endloop
endfacet
facet normal -0.6087614290087203 0.7933533402912356 0.0
  outer loop
    vertex -3.4999999999999987 6.06217782649107 0.0
    vertex -4.949747468305833 4.949747468305833 220.0
    vertex -3.4999999999999987 6.06217782649107 220.0
  endloop
endfacet
facet normal -0.6087614290087213 -0.7933533402912346 -0.0
  outer loop
    vertex -3.5000000000000027 -6.0621778264910695 220.0
    vertex -4.949747468305835 -4.949747468305829 0.0
    vertex -3.5000000000000027 -6.0621778264910695 0.0
  endloop
endfacet
facet normal -0.6087614290087213 -0.7933533402912346 -0.0
  outer loop
    vertex -4.949747468305835 -4.949747468305829 0.0
    vertex -3.5000000000000027 -6.0621778264910695 220.0
    vertex -4.949747468305835 -4.949747468305829 220.0
  endloop
endfacet
facet normal 0.9238795325112868 0.38268343236508967 0.0
  outer loop
    vertex 6.06217782649107 3.499999999999999 0.0
    vertex 6.761480784023478 1.8117333157176452 220.0
    vertex 6.761480784023478 1.8117333157176452 0.0
  endloop
endfacet
facet normal 0.9238795325112868 0.38268343236508967 0.0
  outer loop
    vertex 6.761480784023478 1.8117333157176452 220.0
    vertex 6.06217782649107 3.499999999999999 0.0
    vertex 6.06217782649107 3.499999999999999 220.0
  endloop
endfacet
facet normal 0.38268343236508917 -0.923879532511287 0.0
  outer loop
    vertex 3.499999999999995 -6.062177826491073 220.0
    vertex 1.811733315717642 -6.761480784023479 0.0
    vertex 3.499999999999995 -6.062177826491073 0.0
  endloop
endfacet
facet normal 0.38268343236508917 -0.923879532511287 0.0
  outer loop
    vertex 1.811733315717642 -6.761480784023479 0.0
    vertex 3.499999999999995 -6.062177826491073 220.0
    vertex 1.811733315717642 -6.761480784023479 220.0
  endloop
endfacet
facet normal 0.13052619222005113 -0.9914448613738106 0.0
  outer loop
    vertex 1.811733315717642 -6.761480784023479 220.0
    vertex -1.2858791391047208e-15 -7.0 0.0
    vertex 1.811733315717642 -6.761480784023479 0.0
  endloop
endfacet
facet normal 0.13052619222005113 -0.9914448613738106 0.0
  outer loop
    vertex -1.2858791391047208e-15 -7.0 0.0
    vertex 1.811733315717642 -6.761480784023479 220.0
    vertex -1.2858791391047208e-15 -7.0 220.0
  endloop
endfacet
facet normal -0.13052619222005224 -0.9914448613738104 -0.0
  outer loop
    vertex -1.2858791391047208e-15 -7.0 220.0
    vertex -1.8117333157176505 -6.761480784023476 0.0
    vertex -1.2858791391047208e-15 -7.0 0.0
  endloop
endfacet
facet normal -0.13052619222005224 -0.9914448613738104 -0.0
  outer loop
    vertex -1.8117333157176505 -6.761480784023476 0.0
    vertex -1.2858791391047208e-15 -7.0 220.0
    vertex -1.8117333157176505 -6.761480784023476 220.0
  endloop
endfacet
facet normal -0.38268343236509 -0.9238795325112867 -0.0
  outer loop
    vertex -1.8117333157176505 -6.761480784023476 220.0
    vertex -3.5000000000000027 -6.0621778264910695 0.0
    vertex -1.8117333157176505 -6.761480784023476 0.0
  endloop
endfacet
facet normal -0.38268343236509 -0.9238795325112867 -0.0
  outer loop
    vertex -3.5000000000000027 -6.0621778264910695 0.0
    vertex -1.8117333157176505 -6.761480784023476 220.0
    vertex -3.5000000000000027 -6.0621778264910695 220.0
  endloop
endfacet
facet normal -0.9914448613738105 -0.13052619222005113 -0.0
  outer loop
    vertex -7.0 8.572527594031472e-16 220.0
    vertex -6.761480784023479 -1.8117333157176425 0.0
    vertex -6.761480784023479 -1.8117333157176425 220.0
  endloop
endfacet
facet normal -0.9914448613738105 -0.13052619222005113 -0.0
  outer loop
    vertex -6.761480784023479 -1.8117333157176425 0.0
    vertex -7.0 8.572527594031472e-16 220.0
    vertex -7.0 8.572527594031472e-16 0.0
  endloop
endfacet
facet normal -0.7933533402912354 -0.6087614290087203 -0.0
  outer loop
    vertex -6.062177826491071 -3.499999999999998 220.0
    vertex -4.949747468305835 -4.949747468305829 0.0
    vertex -4.949747468305835 -4.949747468305829 220.0
  endloop
endfacet
facet normal -0.7933533402912354 -0.6087614290087203 -0.0
  outer loop
    vertex -4.949747468305835 -4.949747468305829 0.0
    vertex -6.062177826491071 -3.499999999999998 220.0
    vertex -6.062177826491071 -3.499999999999998 0.0
  endloop
endfacet
facet normal -0.9238795325112868 -0.3826834323650898 -0.0
  outer loop
    vertex -6.761480784023479 -1.8117333157176425 220.0
    vertex -6.062177826491071 -3.499999999999998 0.0
    vertex -6.062177826491071 -3.499999999999998 220.0
  endloop
endfacet
facet normal -0.9238795325112868 -0.3826834323650898 -0.0
  outer loop
    vertex -6.062177826491071 -3.499999999999998 0.0
    vertex -6.761480784023479 -1.8117333157176425 220.0
    vertex -6.761480784023479 -1.8117333157176425 0.0
  endloop
endfacet
facet normal 0.9238795325112865 -0.3826834323650904 0.0
  outer loop
    vertex 6.761480784023476 -1.811733315717651 0.0
    vertex 6.062177826491069 -3.5000000000000027 220.0
    vertex 6.062177826491069 -3.5000000000000027 0.0
  endloop
endfacet
facet normal 0.9238795325112865 -0.3826834323650904 0.0
  outer loop
    vertex 6.062177826491069 -3.5000000000000027 220.0
    vertex 6.761480784023476 -1.811733315717651 0.0
    vertex 6.761480784023476 -1.811733315717651 220.0
  endloop
endfacet
facet normal 0.793353340291235 -0.6087614290087208 0.0
  outer loop
    vertex 6.062177826491069 -3.5000000000000027 0.0
    vertex 4.949747468305832 -4.949747468305834 220.0
    vertex 4.949747468305832 -4.949747468305834 0.0
  endloop
endfacet
facet normal 0.793353340291235 -0.6087614290087208 0.0
  outer loop
    vertex 4.949747468305832 -4.949747468305834 220.0
    vertex 6.062177826491069 -3.5000000000000027 0.0
    vertex 6.062177826491069 -3.5000000000000027 220.0
  endloop
endfacet
facet normal 0.6087614290087203 -0.7933533402912356 0.0
  outer loop
    vertex 4.949747468305832 -4.949747468305834 220.0
    vertex 3.499999999999995 -6.062177826491073 0.0
    vertex 4.949747468305832 -4.949747468305834 0.0
  endloop
endfacet
facet normal 0.6087614290087203 -0.7933533402912356 0.0
  outer loop
    vertex 3.499999999999995 -6.062177826491073 0.0
    vertex 4.949747468305832 -4.949747468305834 220.0
    vertex 3.499999999999995 -6.062177826491073 220.0
  endloop
endfacet
facet normal 0.6087614290087204 0.7933533402912354 0.0
  outer loop
    vertex 3.5000000000000004 6.06217782649107 220.0
    vertex 4.949747468305833 4.949747468305833 0.0
    vertex 3.5000000000000004 6.06217782649107 0.0
  endloop
endfacet
facet normal 0.6087614290087204 0.7933533402912354 0.0
  outer loop
    vertex 4.949747468305833 4.949747468305833 0.0
    vertex 3.5000000000000004 6.06217782649107 220.0
    vertex 4.949747468305833 4.949747468305833 220.0
  endloop
endfacet
facet normal 0.7933533402912356 0.6087614290087203 0.0
  outer loop
    vertex 4.949747468305833 4.949747468305833 0.0
    vertex 6.06217782649107 3.499999999999999 220.0
    vertex 6.06217782649107 3.499999999999999 0.0
  endloop
endfacet
facet normal 0.7933533402912356 0.6087614290087203 0.0
  outer loop
    vertex 6.06217782649107 3.499999999999999 220.0
    vertex 4.949747468305833 4.949747468305833 0.0
    vertex 4.949747468305833 4.949747468305833 220.0
  endloop
endfacet
facet normal -0.38268343236508956 0.9238795325112867 0.0
  outer loop
    vertex -3.4999999999999987 6.06217782649107 220.0
    vertex -1.8117333157176443 6.761480784023478 0.0
    vertex -3.4999999999999987 6.06217782649107 0.0
  endloop
endfacet
facet normal -0.38268343236508956 0.9238795325112867 0.0
  outer loop
    vertex -1.8117333157176443 6.761480784023478 0.0
    vertex -3.4999999999999987 6.06217782649107 220.0
    vertex -1.8117333157176443 6.761480784023478 220.0
  endloop
endfacet
facet normal -0.1305261922200518 0.9914448613738105 0.0
  outer loop
    vertex -1.8117333157176443 6.761480784023478 220.0
    vertex 4.286263797015736e-16 7.0 0.0
    vertex -1.8117333157176443 6.761480784023478 0.0
  endloop
endfacet
facet normal -0.1305261922200518 0.9914448613738105 0.0
  outer loop
    vertex 4.286263797015736e-16 7.0 0.0
    vertex -1.8117333157176443 6.761480784023478 220.0
    vertex 4.286263797015736e-16 7.0 220.0
  endloop
endfacet
facet normal 0.13052619222005168 0.9914448613738104 0.0
  outer loop
    vertex 4.286263797015736e-16 7.0 220.0
    vertex 1.8117333157176467 6.761480784023478 0.0
    vertex 4.286263797015736e-16 7.0 0.0
  endloop
endfacet
facet normal 0.13052619222005168 0.9914448613738104 0.0
  outer loop
    vertex 1.8117333157176467 6.761480784023478 0.0
    vertex 4.286263797015736e-16 7.0 220.0
    vertex 1.8117333157176467 6.761480784023478 220.0
  endloop
endfacet
facet normal 0.0 0.0 -1.0
  outer loop
    vertex -6.761480784023478 1.811733315717647 0.0
    vertex -6.761480784023479 -1.8117333157176425 0.0
    vertex -7.0 8.572527594031472e-16 0.0
  endloop
endfacet
facet normal 0.0 0.0 -1.0
  outer loop
    vertex -6.761480784023479 -1.8117333157176425 0.0
    vertex -6.761480784023478 1.811733315717647 0.0
    vertex -6.062177826491071 -3.499999999999998 0.0
  endloop
endfacet
facet normal 0.0 0.0 -1.0
  outer loop
    vertex -6.062177826491071 -3.499999999999998 0.0
    vertex -6.761480784023478 1.811733315717647 0.0
    vertex -6.0621778264910695 3.500000000000002 0.0
  endloop
endfacet
facet normal 0.0 0.0 -1.0
  outer loop
    vertex -6.062177826491071 -3.499999999999998 0.0
    vertex -6.0621778264910695 3.500000000000002 0.0
    vertex -4.949747468305835 -4.949747468305829 0.0
  endloop
endfacet
facet normal 0.0 0.0 -1.0
  outer loop
    vertex -4.949747468305835 -4.949747468305829 0.0
    vertex -6.0621778264910695 3.500000000000002 0.0
    vertex -4.949747468305833 4.949747468305833 0.0
  endloop
endfacet
facet normal 0.0 0.0 -1.0
  outer loop
    vertex -4.949747468305835 -4.949747468305829 0.0
    vertex -4.949747468305833 4.949747468305833 0.0
    vertex -3.5000000000000027 -6.0621778264910695 0.0
  endloop
endfacet
facet normal 0.0 0.0 -1.0
  outer loop
    vertex -3.5000000000000027 -6.0621778264910695 0.0
    vertex -4.949747468305833 4.949747468305833 0.0
    vertex -3.4999999999999987 6.06217782649107 0.0
  endloop
endfacet
facet normal 0.0 0.0 -1.0
  outer loop
    vertex -3.5000000000000027 -6.0621778264910695 0.0
    vertex -3.4999999999999987 6.06217782649107 0.0
    vertex -1.8117333157176505 -6.761480784023476 0.0
  endloop
endfacet
facet normal 0.0 0.0 -1.0
  outer loop
    vertex -1.8117333157176505 -6.761480784023476 0.0
    vertex -3.4999999999999987 6.06217782649107 0.0
    vertex -1.8117333157176443 6.761480784023478 0.0
  endloop
endfacet
facet normal 0.0 0.0 -1.0
  outer loop
    vertex -1.8117333157176505 -6.761480784023476 0.0
    vertex -1.8117333157176443 6.761480784023478 0.0
    vertex -1.2858791391047208e-15 -7.0 0.0
  endloop
endfacet
facet normal 0.0 0.0 -1.0
  outer loop
    vertex -1.2858791391047208e-15 -7.0 0.0
    vertex -1.8117333157176443 6.761480784023478 0.0
    vertex 4.286263797015736e-16 7.0 0.0
  endloop
endfacet
facet normal 0.0 0.0 -1.0
  outer loop
    vertex -1.2858791391047208e-15 -7.0 0.0
    vertex 4.286263797015736e-16 7.0 0.0
    vertex 1.811733315717642 -6.761480784023479 0.0
  endloop
endfacet
facet normal 0.0 0.0 -1.0
  outer loop
    vertex 1.811733315717642 -6.761480784023479 0.0
    vertex 4.286263797015736e-16 7.0 0.0
    vertex 1.8117333157176467 6.761480784023478 0.0
  endloop
endfacet
facet normal 0.0 0.0 -1.0
  outer loop
    vertex 1.811733315717642 -6.761480784023479 0.0
    vertex 1.8117333157176467 6.761480784023478 0.0
    vertex 3.499999999999995 -6.062177826491073 0.0
  endloop
endfacet
facet normal 0.0 0.0 -1.0
  outer loop
    vertex 3.499999999999995 -6.062177826491073 0.0
    vertex 1.8117333157176467 6.761480784023478 0.0
    vertex 3.5000000000000004 6.06217782649107 0.0
  endloop
endfacet
facet normal 0.0 0.0 -1.0
  outer loop
    vertex 3.499999999999995 -6.062177826491073 0.0
    vertex 3.5000000000000004 6.06217782649107 0.0
    vertex 4.949747468305832 -4.949747468305834 0.0
  endloop
endfacet
facet normal 0.0 0.0 -1.0
  outer loop
    vertex 4.949747468305832 -4.949747468305834 0.0
    vertex 3.5000000000000004 6.06217782649107 0.0
    vertex 4.949747468305833 4.949747468305833 0.0
  endloop
endfacet
facet normal 0.0 0.0 -1.0
  outer loop
    vertex 4.949747468305832 -4.949747468305834 0.0
    vertex 4.949747468305833 4.949747468305833 0.0
    vertex 6.062177826491069 -3.5000000000000027 0.0
  endloop
endfacet
facet normal 0.0 0.0 -1.0
  outer loop
    vertex 6.062177826491069 -3.5000000000000027 0.0
    vertex 4.949747468305833 4.949747468305833 0.0
    vertex 6.06217782649107 3.499999999999999 0.0
  endloop
endfacet
facet normal 0.0 0.0 -1.0
  outer loop
    vertex 6.062177826491069 -3.5000000000000027 0.0
    vertex 6.06217782649107 3.499999999999999 0.0
    vertex 6.761480784023476 -1.811733315717651 0.0
  endloop
endfacet
facet normal 0.0 0.0 -1.0
  outer loop
    vertex 6.761480784023476 -1.811733315717651 0.0
    vertex 6.06217782649107 3.499999999999999 0.0
    vertex 6.761480784023478 1.8117333157176452 0.0
  endloop
endfacet
facet normal 0.0 0.0 -1.0
  outer loop
    vertex 6.761480784023476 -1.811733315717651 0.0
    vertex 6.761480784023478 1.8117333157176452 0.0
    vertex 7.0 0.0 0.0
  endloop
endfacet
facet normal 0.0 0.0 1.0
  outer loop
    vertex -6.761480784023479 -1.8117333157176425 220.0
    vertex -6.761480784023478 1.811733315717647 220.0
    vertex -7.0 8.572527594031472e-16 220.0
  endloop
endfacet
facet normal 0.0 0.0 1.0
  outer loop
    vertex -6.761480784023478 1.811733315717647 220.0
    vertex -6.761480784023479 -1.8117333157176425 220.0
    vertex -6.062177826491071 -3.499999999999998 220.0
  endloop
endfacet
facet normal 0.0 0.0 1.0
  outer loop
    vertex -6.761480784023478 1.811733315717647 220.0
    vertex -6.062177826491071 -3.499999999999998 220.0
    vertex -6.0621778264910695 3.500000000000002 220.0
  endloop
endfacet
facet normal 0.0 0.0 1.0
  outer loop
    vertex -6.0621778264910695 3.500000000000002 220.0
    vertex -6.062177826491071 -3.499999999999998 220.0
    vertex -4.949747468305835 -4.949747468305829 220.0
  endloop
endfacet
facet normal 0.0 0.0 1.0
  outer loop
    vertex -6.0621778264910695 3.500000000000002 220.0
    vertex -4.949747468305835 -4.949747468305829 220.0
    vertex -4.949747468305833 4.949747468305833 220.0
  endloop
endfacet
facet normal 0.0 0.0 1.0
  outer loop
    vertex -4.949747468305833 4.949747468305833 220.0
    vertex -4.949747468305835 -4.949747468305829 220.0
    vertex -3.5000000000000027 -6.0621778264910695 220.0
  endloop
endfacet
facet normal 0.0 0.0 1.0
  outer loop
    vertex -4.949747468305833 4.949747468305833 220.0
    vertex -3.5000000000000027 -6.0621778264910695 220.0
    vertex -3.4999999999999987 6.06217782649107 220.0
  endloop
endfacet
facet normal 0.0 0.0 1.0
  outer loop
    vertex -3.4999999999999987 6.06217782649107 220.0
    vertex -3.5000000000000027 -6.0621778264910695 220.0
    vertex -1.8117333157176505 -6.761480784023476 220.0
  endloop
endfacet
facet normal 0.0 0.0 1.0
  outer loop
    vertex -3.4999999999999987 6.06217782649107 220.0
    vertex -1.8117333157176505 -6.761480784023476 220.0
    vertex -1.8117333157176443 6.761480784023478 220.0
  endloop
endfacet
facet normal 0.0 0.0 1.0
  outer loop
    vertex -1.8117333157176443 6.761480784023478 220.0
    vertex -1.8117333157176505 -6.761480784023476 220.0
    vertex -1.2858791391047208e-15 -7.0 220.0
  endloop
endfacet
facet normal 0.0 0.0 1.0
  outer loop
    vertex -1.8117333157176443 6.761480784023478 220.0
    vertex -1.2858791391047208e-15 -7.0 220.0
    vertex 4.286263797015736e-16 7.0 220.0
  endloop
endfacet
facet normal 0.0 0.0 1.0
  outer loop
    vertex 4.286263797015736e-16 7.0 220.0
    vertex -1.2858791391047208e-15 -7.0 220.0
    vertex 1.811733315717642 -6.761480784023479 220.0
  endloop
endfacet
facet normal 0.0 0.0 1.0
  outer loop
    vertex 4.286263797015736e-16 7.0 220.0
    vertex 1.811733315717642 -6.761480784023479 220.0
    vertex 1.8117333157176467 6.761480784023478 220.0
  endloop
endfacet
facet normal 0.0 0.0 1.0
  outer loop
    vertex 1.8117333157176467 6.761480784023478 220.0
    vertex 1.811733315717642 -6.761480784023479 220.0
    vertex 3.499999999999995 -6.062177826491073 220.0
  endloop
endfacet
facet normal 0.0 0.0 1.0
  outer loop
    vertex 1.8117333157176467 6.761480784023478 220.0
    vertex 3.499999999999995 -6.062177826491073 220.0
    vertex 3.5000000000000004 6.06217782649107 220.0
  endloop
endfacet
facet normal 0.0 0.0 1.0
  outer loop
    vertex 3.5000000000000004 6.06217782649107 220.0
    vertex 3.499999999999995 -6.062177826491073 220.0
    vertex 4.949747468305832 -4.949747468305834 220.0
  endloop
endfacet
facet normal 0.0 0.0 1.0
  outer loop
    vertex 3.5000000000000004 6.06217782649107 220.0
    vertex 4.949747468305832 -4.949747468305834 220.0
    vertex 4.949747468305833 4.949747468305833 220.0
  endloop
endfacet
facet normal 0.0 0.0 1.0
  outer loop
    vertex 4.949747468305833 4.949747468305833 220.0
    vertex 4.949747468305832 -4.949747468305834 220.0
    vertex 6.062177826491069 -3.5000000000000027 220.0
  endloop
endfacet
facet normal 0.0 0.0 1.0
  outer loop
    vertex 4.949747468305833 4.949747468305833 220.0
    vertex 6.062177826491069 -3.5000000000000027 220.0
    vertex 6.06217782649107 3.499999999999999 220.0
  endloop
endfacet
facet normal 0.0 0.0 1.0
  outer loop
    vertex 6.06217782649107 3.499999999999999 220.0
    vertex 6.062177826491069 -3.5000000000000027 220.0
    vertex 6.761480784023476 -1.811733315717651 220.0
  endloop
endfacet
facet normal 0.0 0.0 1.0
  outer loop
    vertex 6.06217782649107 3.499999999999999 220.0
    vertex 6.761480784023476 -1.811733315717651 220.0
    vertex 6.761480784023478 1.8117333157176452 220.0
  endloop
endfacet
facet normal 0.0 0.0 1.0
  outer loop
    vertex 6.761480784023478 1.8117333157176452 220.0
    vertex 6.761480784023476 -1.811733315717651 220.0
    vertex 7.0 0.0 220.0
  endloop
endfacet
endsolid tripod
